<svg xmlns="http://www.w3.org/2000/svg" viewBox="0 0 100 100">
  <path fill="#29323d" d="M49.9 7.1a42.9 42.9 0 1 1 0 85.8 42.9 42.9 0 0 1 0-85.8zM65 36.2c-.4.3-.7 1-1.2 1 .2 0 .5-1 .7-1.2.3-.4.8-.6 1.2-.8 1-.4 2-.5 3-.7.9-.2 2-.2 2.8.6-.2-.2 1.1-1.3 1.3-1.4.5-.3 1.3-.2 1.7-.7v-1.2c-.9.1-1.2-.8-1.3-1.6 0 .1 0 .3-.3.5 0-.8-1-.2-1.4-.3-1.3-.4-1.1-1.3-1.5-2.2-.2-.5-.8-.7-1-1.2-.3-.3-.4-1-.9-1.1-.3 0-1 1.2-1 1.1-.5-.3-.8.1-1.2.3-.3.3-.6.2-1 .3 1-.3-.4-.9-.9-.8.8-.2.4-1 0-1.4h.3c-.1-.5-1.7-1-2.2-1.3-.5-.3-3.2-.9-3.8-.6-.6.4.2 1.6.2 2.1 0 .7-.7.8-.7 1.4 0 1 1.8.8 1.4 2-.3.9-1.4 1-1.8 1.6-.4.6 0 1.6.5 2 .4.3-.8.9-1 1-.9.4-1.6-1-1.8-1.8-.2-.6-.3-1.3-1-1.7-.3 0-1.3-.2-1.6 0-.3-.7-1.5-1-2.2-1.4-1.2-.4-2.1-.4-3.3-.2.4 0 0-1.8-1-1.5.2-.6.1-1.2.2-1.7.2-.5.4-1 .7-1.3.1-.2 1.3-1.5 1-1.6 1 .1 2 .2 2.7-.6.6-.5.8-1.3 1.3-1.9.7-.8 1.6.2 2.4.3 1 0 1-1.2.4-1.7.7 0 .1-1.3-.3-1.5-.5-.1-2.4.4-1.4.7-.2 0-1.5 2.7-2.3 1.3-.2-.3-.3-1.4-.8-1.5-.5 0-.8.5-1 .9.4-.8-1.5-1.3-1.9-1.3.9-.6.2-1.2-.4-1.5-.5-.3-1.9-.5-2.3 0-1 1.2 1.2 1.4 1.7 1.7.2.1.9.5.5.8-.4.1-1.4.4-1.5.6-.3.6.4 1.1-.1 1.6-.5-.5-.5-1.3-.9-1.9.5.6-2 .3-2 .3-.8 0-2.1.6-2.7-.3-.1-.2-.1-1.5.2-1.2-.5-.4-.8-.8-1.2-1-1.8.6-3.6 1.4-5.2 2.3h.6l1.3-.8c.6-.2 1.8-.8 2.4-.3 0-.2.2-.3.2-.3l1.2 1.4c-.5-.3-1.2-.1-1.7 0-.4 0-1 .1-1.2.6.1.3.4.7.2 1-.7-.5-1.2-1.4-2.2-1.5h-1.3c-5.3 3-9.9 7.3-13 12.5.1.2.4.4.6.4.5.2 0 1.8 1 1 .4.3.4.6.2 1L24 35c.4.4 1 .8 1.1 1.2.1.4-.2.9-.5 1 0 0-1-1-1-.7-.2.3 0 1.8.6 1.7-1 0-.5 3.5-.7 4.2 0 .7.5 3.4 1.6 3-.7.2 1.3 2.8 1.5 3 .8.5 1.6.8 2.1 1.5.6.8.6 2 1.3 2.6-.2.7 1.2 1.5 1.2 2.4l-.3.1c.3.8 1.3.8 1.7 1.5.2.5 0 1.5.7 1.3.1-1.2-.7-2.4-1.3-3.5l-1-1.6-.5-1.6c.2 0 1.4.5 1.3.6-.4 1.1 1.8 3.1 2.4 3.8.2.2 1.5 1.9.8 1.9.7 0 1.7 1 2 1.6.6.9.5 2 .8 2.8.3 1.1 1.9 1.6 2.8 2.1.8.4 1.4 1 2.2 1.3 1.2.4 1.5 0 2.5-.1 1.4-.3 1.6 1.4 2.8 2 .7.4 2.3 1 3 .6-.3.1 1.2 2.4 1.3 2.6.5.6 1.5 1 2 1.6.2 0 .4-.3.4-.5-.2.6.9 1.8 1.4 1.7.6-.1.8-1.3.8-1.8-1.1.6-2.1.1-2.7-1-.1-.3-1-1.8-.3-1.8 1.1 0 .4-.9.3-1.7-.1-.7-1-1.2-1.3-1.9-.4.7-1.5.5-1.8 0l-.2.6h-.8l.3-2.3c.3-1 2.1-3-.3-2.8-.8 0-1.1.4-1.4 1-.3.8-.2 1.4-1 1.7-.5.2-2.1.1-2.6-.2-1-.6-1.8-2.5-1.8-3.6 0-1.5.7-2.9 0-4.3l1-1.1c.4-.2.8.2 1-.5l-.5-.3c.8.4 2.4-.6 3.1 0 .5.3 1 .4 1.2-.1.1-.2-.3-.9-.1-1.3.1 1 .8 1 1.6.5.3.3 1.2.2 1.8.5.6.4.8 1 1.5.2.4.7.5.7.7 1.3.1.7.5 2.2 1 2.5 1.2.7 1-1.2.8-1.9l-.1-1.9c-1.8-.4-1.1-1.8-.1-2.7l2-1c.5-.5 1.1-1.3.8-2 .3 0 .5-.2.6-.5-.1 0-.8-.6-1-.6.5-.2.4-.5.2-.8.6-.4.3-1 .8-1.2.6.8 1.9-.1 1.3-.8.5-.8 1.8-.4 2.1-1.1.9.2.3-.9.7-1.5.4-.5 1-.5 1.6-.7 0 0 1.4-.8 1-.9.9.1 2.8-.9 1.3-1.7.2-.5-.5-.7-1-.9.4 0 .9.2 1.2 0 .8-.6.3-.8-.4-1-.7-.2-1.7.3-2.4.7zm-9 49a35.4 35.4 0 0 0 19.5-10.6c-.3-.3-1-.2-1.4-.4-.4-.2-.7-.4-1.3-.5.1-1.1-1.1-1.5-1.9-2-.7-.6-1.2-1.2-2.2-1-.1 0-1.3.4-1 .7-.8-.6-1-1-2-1.3-1-.2-1.5-1.4-2.4-.3-.5.4-.3 1-.5 1.5-.7-.6.7-1.3.1-2-.6-.8-1.8.5-2.4.8-.3.3-.7.4-1 .8l-.5 1.3c-.2-.5-1.2-.4-1.2-.7.2 1.3.2 2.7.5 4 .2.8 0 2.1-.7 2.7-.6.6-1.5 1.3-1.6 2.3-.1.6 0 1.2.7 1.4 0 .9-1 1.5-.9 2.4l.1.9z"/>
</svg>